<svg width="218" height="47" viewBox="0 0 218 47" fill="none" xmlns="http://www.w3.org/2000/svg">
<g clip-path="url(#clip0_201_3385)">
<path d="M211.008 1.39272C194.351 4.82447 193.179 5.12288 191.355 5.96838C189.257 6.93822 187.635 8.43029 186.76 10.1959C186.261 11.2403 186.161 11.7874 186.161 13.8017C186.161 15.8906 186.236 16.3382 186.86 17.5816C188.358 20.6155 191.905 22.8784 195.625 23.1768C197.374 23.326 197.398 23.326 196.973 22.8288C196.374 22.1821 196.4 21.5355 197.048 20.8641C197.449 20.4165 198.522 20.0684 201.494 19.372C203.64 18.8748 205.489 18.3774 205.614 18.2779C205.813 18.079 207.087 13.0308 206.963 12.9313C206.837 12.8319 197.273 14.9954 196.05 15.4181C194.302 15.9901 193.478 16.9599 193.353 18.5763C193.254 19.6456 193.353 20.118 193.877 21.0631C194.227 21.7345 194.426 22.2567 194.302 22.2567C193.827 22.2567 191.98 20.7895 191.33 19.8942C189.382 17.2086 189.632 14.125 191.98 12.0112C192.553 11.489 193.428 10.9171 193.928 10.6932C194.426 10.4943 199.67 9.37527 205.588 8.20648C211.506 7.03769 216.426 5.99324 216.526 5.89378C216.627 5.79431 216.951 4.65039 217.226 3.35727C217.526 2.06415 217.825 0.795893 217.9 0.547216C218.075 -0.0496099 217.751 -0.0247422 211.008 1.39272Z" fill="white"/>
<path d="M46.8215 10.8176C41.203 11.4144 36.4334 13.8266 34.2609 17.2086C31.8636 20.9387 31.8387 26.0615 34.2111 29.7171C37.2325 34.3923 44.3743 36.9784 52.2154 36.2075C59.2324 35.5361 63.9269 32.9498 66.0994 28.5234C66.9734 26.8075 67.0483 26.4593 67.1233 24.1218C67.2731 20.0186 66.3241 17.6065 63.5025 15.0451C59.9564 11.8123 53.3142 10.1461 46.8215 10.8176ZM53.9633 16.1393C55.8612 16.5372 58.2834 17.6811 59.482 18.7504C61.155 20.2176 62.054 23.1768 61.4298 25.1415C60.6306 27.653 58.5831 29.344 54.9123 30.5625C50.7671 31.9304 46.7966 31.6567 42.7013 29.7171C40.2042 28.4986 38.9307 27.28 38.3313 25.4647C36.9829 21.4361 39.9794 17.4821 45.3482 16.189C47.271 15.7165 51.8657 15.7165 53.9633 16.1393Z" fill="white"/>
<path d="M5.36885 11.0414C3.32118 11.5388 1.34845 13.18 0.549369 15.0202C0.324627 15.5425 0.149828 16.6615 0.149828 17.6562C0.124857 19.8942 0.873998 21.6351 2.42222 23.0028C4.2701 24.6192 5.3189 24.8679 13.8341 25.7133C18.0543 26.1361 21.75 26.6085 22.0247 26.7577C22.5491 27.0313 23.2234 28.399 23.2234 29.2196C23.2234 29.4933 22.8988 30.0653 22.4991 30.5129L21.7751 31.3335L12.211 31.4577L2.64696 31.5821L1.32348 33.6958C0.599313 34.8647 0 35.8843 0 35.9589C0 36.2573 13.5595 36.4562 18.8784 36.2573C24.0974 36.0335 24.1472 36.0335 25.4957 35.2875C28.0179 33.87 29.4412 31.1097 29.1167 28.2498C28.9168 26.3101 27.6184 23.8482 26.2948 22.8536C24.9964 21.8837 24.0723 21.6599 17.9544 21.0133C6.26782 19.745 7.19175 19.8942 6.56747 19.1732C5.81833 18.2779 5.81833 17.1837 6.6174 16.4128L7.21672 15.7911H16.0816C20.951 15.7911 25.1211 15.7165 25.321 15.6419C25.6706 15.5176 28.4674 11.315 28.4674 10.9419C28.4674 10.743 6.21787 10.8425 5.36885 11.0414Z" fill="white"/>
<path d="M72.417 21.1625C72.417 28.2994 72.5168 31.8308 72.7166 32.4772C73.141 33.9197 74.4646 35.3121 75.8379 35.7847C76.8118 36.1328 78.435 36.1826 86.301 36.1826H95.5904L96.9888 33.9197C97.7629 32.6762 98.3871 31.607 98.3871 31.5572C98.3871 31.5074 94.0421 31.4577 88.7483 31.4577C82.6053 31.4577 78.9594 31.3582 78.6349 31.2089C78.1854 30.9603 78.1603 30.5625 78.1603 20.8889V10.8175H75.2886H72.417V21.1625Z" fill="white"/>
<path d="M113.769 11.7377C112.77 13.3292 99.3857 35.9091 99.3857 36.0583C99.3857 36.1329 100.709 36.1827 102.332 36.1827C105.803 36.1827 105.629 36.3069 107.526 32.9498C109.524 29.3938 108.7 29.7171 116.017 29.7171H122.334L120.911 27.28L119.463 24.8679L115.892 24.7933C113.944 24.7684 112.371 24.644 112.421 24.5446C112.67 23.9228 117.74 15.5425 117.864 15.5425C117.939 15.5425 120.586 19.9192 123.733 25.2657C126.879 30.6371 129.676 35.2625 129.926 35.5859C130.375 36.1577 130.525 36.1827 133.372 36.1827C134.995 36.1827 136.343 36.0831 136.343 35.9837C136.343 35.3371 122.11 11.6631 121.435 11.116C121.136 10.9171 119.962 10.8176 117.69 10.8176H114.369L113.769 11.7377Z" fill="white"/>
<path d="M139.59 23.5V36.2075L142.412 36.1329L145.208 36.0583L145.283 32.0048L145.333 27.9762H150.577H155.796L159.592 32.0794L163.363 36.1826H167.009H170.654L169.655 35.1133C167.158 32.5022 162.813 27.6778 162.813 27.5286C162.813 27.4292 163.338 27.1308 164.012 26.8821C164.686 26.5837 165.785 25.7879 166.609 24.9921C167.808 23.7984 168.107 23.3012 168.582 21.7841C169.556 18.5763 168.981 16.0646 166.734 13.6276C165.535 12.3345 164.012 11.489 162.114 11.0911C161.265 10.917 157.095 10.8176 150.203 10.8176H139.59V23.5ZM160.841 16.1641C163.488 17.1091 164.237 19.3472 162.489 21.2123C161.24 22.5552 160.99 22.58 152.9 22.7044L145.333 22.8038V19.2974V15.7911H152.55C158.393 15.7911 159.967 15.8657 160.841 16.1641Z" fill="white"/>
<path d="M197.899 23.9974C198.448 25.0667 198.373 25.9123 197.674 26.3599C197.198 26.6831 194.827 27.2551 190.557 28.1254C189.658 28.3244 188.535 29.5678 188.535 30.3885C188.535 30.7863 188.359 31.7561 188.16 32.552C187.935 33.3726 187.81 34.044 187.86 34.0936C187.909 34.1434 188.334 34.0688 188.808 33.9694C189.284 33.845 191.73 33.273 194.277 32.7012C199.247 31.5821 200.446 31.0599 201.169 29.6673C201.744 28.573 201.519 26.7577 200.671 25.4895C200.32 24.9424 200.12 24.4948 200.246 24.4948C200.77 24.4948 202.942 26.1857 203.566 27.1059C205.091 29.2942 205.064 32.7758 203.467 34.5663C202.068 36.1577 200.845 36.5307 189.907 38.6694C184.289 39.7885 179.32 40.7831 178.895 40.9323C178.146 41.1561 178.096 41.2805 177.472 43.8419C177.122 45.3339 176.922 46.6022 177.047 46.7266C177.297 46.9752 177.547 46.9504 189.284 44.4885C201.869 41.8524 204.315 41.0815 206.413 38.9926C207.937 37.4758 208.636 35.6853 208.636 33.1984C208.636 31.3333 208.537 30.8857 207.836 29.4186C206.289 26.1609 202.918 23.9974 198.472 23.4006L197.524 23.2762L197.899 23.9974Z" fill="white"/>
</g>
<defs>
<clipPath id="clip0_201_3385">
<rect width="218" height="47" fill="white"/>
</clipPath>
</defs>
</svg>
